<svg width="28" height="15" viewBox="0 0 28 15" fill="none" xmlns="http://www.w3.org/2000/svg">
<path fill-rule="evenodd" clip-rule="evenodd" d="M-2.99056e-05 7.99756C-2.98824e-05 7.73239 0.105307 7.47808 0.292809 7.29058C0.480311 7.10307 0.73462 6.99774 0.999789 6.99774L23.9565 6.99774L19.6633 2.70651C19.5703 2.61355 19.4966 2.5032 19.4463 2.38174C19.396 2.26028 19.3701 2.1301 19.3701 1.99864C19.3701 1.86718 19.396 1.737 19.4463 1.61554C19.4966 1.49408 19.5703 1.38373 19.6633 1.29077C19.7563 1.19781 19.8666 1.12407 19.9881 1.07376C20.1095 1.02345 20.2397 0.997558 20.3712 0.997558C20.5026 0.997558 20.6328 1.02345 20.7543 1.07376C20.8757 1.12407 20.9861 1.19781 21.0791 1.29077L27.078 7.28969C27.1711 7.38256 27.245 7.49289 27.2954 7.61436C27.3458 7.73583 27.3717 7.86605 27.3717 7.99756C27.3717 8.12907 27.3458 8.25929 27.2954 8.38076C27.245 8.50222 27.1711 8.61256 27.078 8.70543L21.0791 14.7043C20.8913 14.8921 20.6367 14.9976 20.3712 14.9976C20.1057 14.9976 19.851 14.8921 19.6633 14.7043C19.4756 14.5166 19.3701 14.262 19.3701 13.9965C19.3701 13.731 19.4756 13.4763 19.6633 13.2886L23.9565 8.99738L0.999789 8.99738C0.73462 8.99738 0.480311 8.89204 0.292809 8.70453C0.105307 8.51703 -2.99288e-05 8.26272 -2.99056e-05 7.99756Z" fill="#FF595A"/>
</svg>
