<svg width="46" height="50" viewBox="0 0 46 50" fill="none" xmlns="http://www.w3.org/2000/svg">
<path d="M22.8226 50C35.4271 50 45.6451 39.8826 45.6451 27.4023C45.6451 14.9219 35.4271 4.80457 22.8226 4.80457C10.218 4.80457 0 14.9219 0 27.4023C0 39.8826 10.218 50 22.8226 50Z" fill="#2F80ED"/>
<path d="M39.9916 29.4947C41.1592 20.1057 34.4185 11.5572 24.936 10.4012C15.4536 9.24516 6.82001 15.9194 5.65249 25.3084C4.48497 34.6975 11.2256 43.246 20.7081 44.402C30.1906 45.558 38.8241 38.8838 39.9916 29.4947Z" fill="white"/>
<path d="M25.662 39.3051C32.3026 37.7525 36.4147 31.1637 34.8467 24.5885C33.2786 18.0134 26.6242 13.9418 19.9837 15.4944C13.3431 17.0469 9.23098 23.6358 10.799 30.2109C12.367 36.786 19.0214 40.8576 25.662 39.3051Z" fill="#2F80ED"/>
<path d="M31.3244 27.4024C31.3244 32.0533 27.5197 35.8206 22.8225 35.8206C18.1253 35.8206 14.3206 32.0533 14.3206 27.4024C14.3206 22.7515 18.1253 18.9843 22.8225 18.9843C27.5197 18.9843 31.3244 22.7515 31.3244 27.4024Z" fill="white"/>
<path d="M26.7479 27.4023C26.7479 29.5457 24.9933 31.289 22.8226 31.289C20.6579 31.289 18.8972 29.5516 18.8972 27.4023C18.8972 25.259 20.6519 23.5156 22.8226 23.5156C24.9873 23.5156 26.7479 25.253 26.7479 27.4023Z" fill="#2F80ED"/>
<path d="M42.9558 1.43734C42.4734 1.23435 40.9298 0.434323 39.6877 3.3359C38.5058 6.10016 37.2577 9.83759 37.2577 9.83759C37.2577 9.83759 40.3329 7.33005 42.5036 5.24044C44.7828 3.0553 43.408 1.72391 42.9558 1.43734Z" fill="#2F80ED"/>
<path d="M40.3149 3.65234L37.3603 6.66139C36.4679 7.56888 35.6659 8.55398 34.9544 9.60476L22.895 27.4023L36.5644 12.7511C38.108 11.0973 39.3742 9.21072 40.3088 7.1629L41.4605 4.64939C41.0143 4.40461 40.6224 4.0643 40.3149 3.65234Z" fill="#110239"/>
<path d="M36.7572 10.0704C36.7572 10.0704 34.7674 4.58369 36.6306 1.03135C38.4878 -2.521 40.9177 4.24338 40.9177 4.24338L36.7572 10.0704Z" fill="#2F80ED"/>
<path d="M36.7452 10.0405C36.7452 10.0405 42.6302 10.0286 45.3798 7.09118C48.1233 4.15377 40.8756 4.1896 40.8756 4.1896L36.7452 10.0405Z" fill="#2F80ED"/>
<path d="M32.3495 17.3244C32.3073 17.3065 32.2591 17.4259 32.2108 17.4139L32.2169 17.2826C32.1988 17.1632 31.7466 17.1333 31.644 17.0796C31.3426 16.9244 31.4632 16.7333 31.6018 16.7751C31.6983 16.805 31.9094 16.8647 31.9938 16.9005C32.0782 16.9363 32.2229 16.9184 32.3073 16.9363C32.3917 16.9542 32.6269 17.1572 32.6993 17.205C32.856 17.3065 32.5123 17.3901 32.3495 17.3244Z" fill="#F88667"/>
</svg>
