<svg width="68" height="50" viewBox="0 0 68 50" fill="none" xmlns="http://www.w3.org/2000/svg">
<g clip-path="url(#clip0_54_38)">
<path d="M68 14.5128H59.9166V50.0001H68V14.5128Z" fill="#143F6B"/>
<path d="M53.0172 33.6731H44.9338V49.9999H53.0172V33.6731Z" fill="#FF595A"/>
<path d="M38.049 29.7301H29.9656V50H38.049V29.7301Z" fill="#143F6B"/>
<path d="M23.0662 18.246H14.9828V49.9851H23.0662V18.246Z" fill="#FF595A"/>
<path d="M8.08341 25.2173H0V49.9999H8.08341V25.2173Z" fill="#143F6B"/>
<path d="M49.1582 23.5981L33.8099 20.4797L19.0172 5.96695L4.31208 19.2953L3.77124 18.6656L19.0318 4.84251L34.19 19.7001L48.8074 22.6836L63.6294 1.27429L64.2872 1.75405L49.1582 23.5981Z" fill="#110239"/>
<path d="M5.86156 18.9805C5.86156 20.015 5.04298 20.8546 4.03439 20.8546C3.02579 20.8546 2.20721 20.015 2.20721 18.9805C2.20721 17.946 3.02579 17.1064 4.03439 17.1064C5.04298 17.1064 5.86156 17.946 5.86156 18.9805Z" fill="#FD425F"/>
<path d="M18.9148 7.28633C19.9239 7.28633 20.742 6.44729 20.742 5.41227C20.742 4.37725 19.9239 3.53821 18.9148 3.53821C17.9057 3.53821 17.0876 4.37725 17.0876 5.41227C17.0876 6.44729 17.9057 7.28633 18.9148 7.28633Z" fill="#FD425F"/>
<path d="M35.8272 20.075C35.8272 21.1095 35.0086 21.9491 34 21.9491C32.9914 21.9491 32.1729 21.1095 32.1729 20.075C32.1729 19.0405 32.9914 18.2009 34 18.2009C35.0086 18.2009 35.8272 19.0405 35.8272 20.075Z" fill="#FD425F"/>
<path d="M50.81 22.7287C50.81 23.7632 49.9914 24.6027 48.9828 24.6027C47.9742 24.6027 47.1556 23.7632 47.1556 22.7287C47.1556 21.6942 47.9742 20.8546 48.9828 20.8546C49.9914 20.8546 50.81 21.6942 50.81 22.7287Z" fill="#FD425F"/>
<path d="M65.7781 1.87406C65.7781 2.90855 64.9595 3.74813 63.951 3.74813C62.9424 3.74813 62.1238 2.90855 62.1238 1.87406C62.1238 0.83958 62.957 0 63.9656 0C64.9742 0 65.7781 0.83958 65.7781 1.87406Z" fill="#FD425F"/>
</g>
<defs>
<clipPath id="clip0_54_38">
<rect width="68" height="50" fill="white"/>
</clipPath>
</defs>
</svg>
