<svg width="76" height="50" viewBox="0 0 76 50" fill="none" xmlns="http://www.w3.org/2000/svg">
<path d="M62.6275 29.1395L58.7041 27.5466L38 35.9563L17.2959 27.5466L13.3725 29.1395L0 34.5709L32.3772 47.7195L38 50L43.7444 47.6703L76 34.5709L62.6275 29.1395Z" fill="#FC5D3D"/>
<path d="M37.5645 46.0112L12.1161 35.6782C11.5145 35.4341 11.2216 34.7402 11.4619 34.1288C11.7027 33.5179 12.3841 33.2198 12.9867 33.464L38 43.6205L63.0128 33.4645C63.6163 33.2189 64.2973 33.5179 64.5376 34.1293C64.7783 34.7407 64.4855 35.4345 63.8833 35.6787L38.435 46.0117C38.1558 46.1252 37.8442 46.1252 37.5645 46.0112Z" fill="#FFCBC2"/>
<path d="M62.6284 29.1404L38 39.1452L13.3716 29.1404L17.2959 27.549L38 35.9562L58.7041 27.549L62.6284 29.1404Z" fill="#B35034"/>
<path d="M70.419 22.792L58.7041 27.5491L38 35.9563L17.296 27.5491L5.58105 22.792L18.955 17.3606L22.8793 15.7692L38 21.9107L53.1207 15.7692L57.039 17.3606L70.419 22.792Z" fill="#72C1E8"/>
<path d="M37.5645 31.9661L17.6996 23.8993C17.0979 23.6552 16.8051 22.9613 17.0454 22.3499C17.2861 21.739 17.9676 21.4404 18.5701 21.6851L37.9996 29.5749L51.3284 24.1626C51.9324 23.9175 52.6129 24.216 52.8532 24.8274C53.094 25.4388 52.8011 26.1327 52.199 26.3768L38.4346 31.9661C38.1582 32.0791 37.8466 32.081 37.5645 31.9661ZM55.0327 23.9427C54.7919 23.3314 55.0848 22.6375 55.6869 22.3933L57.4304 21.6856C58.0339 21.4404 58.7149 21.739 58.9552 22.3504C59.1959 22.9618 58.9031 23.6556 58.301 23.8998L56.5575 24.6075C55.9568 24.8522 55.2734 24.5546 55.0327 23.9427Z" fill="#C5E5FF"/>
<path d="M57.039 17.3606L54.1978 18.5142L38 25.0992C19.1854 17.4531 22.7409 18.8976 18.955 17.3606L22.8793 15.7692L38 21.9107L53.1207 15.7692L57.039 17.3606Z" fill="#68B0D4"/>
<path d="M53.1212 15.7705L64.8352 11.0158L38 0L11.1649 11.0158L22.8789 15.7705L38 21.9082L53.1212 15.7705Z" fill="#13BF6D"/>
<path d="M37.5644 17.9204L23.2913 12.1227C22.6897 11.8781 22.3968 11.1847 22.6371 10.5733C22.8774 9.96237 23.5621 9.66384 24.1619 9.90849L37.9999 15.5292L46.1725 12.2095C46.7727 11.9639 47.4565 12.262 47.6973 12.8743C47.938 13.4857 47.6452 14.1791 47.0431 14.4238L38.435 17.9204C38.1576 18.0334 37.846 18.0348 37.5644 17.9204ZM49.8763 11.9892C49.6355 11.3778 49.9284 10.6839 50.5305 10.4398L51.838 9.90896C52.442 9.66384 53.1225 9.96237 53.3628 10.5738C53.6035 11.1851 53.3107 11.879 52.7086 12.1232L51.4011 12.654C50.7999 12.8982 50.1166 12.6011 49.8763 11.9892Z" fill="#76FFBA"/>
</svg>
