<svg width="119" height="30" viewBox="0 0 119 30" fill="none" xmlns="http://www.w3.org/2000/svg">
<path d="M37.9299 23.6226L39.4108 20.1832C41.0111 21.3774 43.1369 21.9984 45.2388 21.9984C46.7914 21.9984 47.7707 21.4013 47.7707 20.4937C47.7468 17.9618 38.4793 19.9443 38.4076 13.5908C38.3838 10.3663 41.25 7.8822 45.3105 7.8822C47.7229 7.8822 50.1353 8.47934 51.8551 9.8408L50.4697 13.3519C48.8933 12.3488 46.9347 11.6322 45.0717 11.6322C43.8057 11.6322 42.9697 12.2293 42.9697 12.9937C42.9936 15.4777 52.3328 14.1163 52.4283 20.1832C52.4283 23.4793 49.6338 25.7962 45.621 25.7962C42.6831 25.7962 39.9841 25.1035 37.9299 23.6226ZM94.7532 18.9411C94.0127 20.2309 92.6274 21.1147 91.0271 21.1147C88.6624 21.1147 86.7516 19.2039 86.7516 16.8392C86.7516 14.4746 88.6624 12.5637 91.0271 12.5637C92.6274 12.5637 94.0127 13.4475 94.7532 14.7373L98.8376 12.4682C97.3089 9.74526 94.371 7.8822 91.0271 7.8822C86.0828 7.8822 82.0701 11.8949 82.0701 16.8392C82.0701 21.7835 86.0828 25.7962 91.0271 25.7962C94.3949 25.7962 97.3089 23.957 98.8376 21.2102L94.7532 18.9411ZM54.4825 0.453857H59.5939V25.4618H54.4825V0.453857ZM100.844 0.453857V25.4618H105.955V17.9618L112.022 25.4618H118.567L110.852 16.5526L117.994 8.24048H111.736L105.955 15.1433V0.453857H100.844ZM74.785 18.9889C74.0446 20.207 72.5159 21.1147 70.7962 21.1147C68.4315 21.1147 66.5207 19.2039 66.5207 16.8392C66.5207 14.4746 68.4315 12.5637 70.7962 12.5637C72.5159 12.5637 74.0446 13.5191 74.785 14.7612V18.9889ZM74.785 8.24048V10.2707C73.949 8.8615 71.871 7.8822 69.6974 7.8822C65.207 7.8822 61.672 11.8472 61.672 16.8153C61.672 21.7835 65.207 25.7962 69.6974 25.7962C71.871 25.7962 73.949 24.8169 74.785 23.4077V25.4379H79.8965V8.24048H74.785Z" fill="black"/>
<path d="M6.32966 18.965C6.32966 20.7086 4.92042 22.1179 3.17679 22.1179C1.43316 22.1179 0.0239258 20.7086 0.0239258 18.965C0.0239258 17.2214 1.43316 15.8121 3.17679 15.8121H6.32966V18.965ZM7.90609 18.965C7.90609 17.2214 9.31533 15.8121 11.059 15.8121C12.8026 15.8121 14.2118 17.2214 14.2118 18.965V26.8472C14.2118 28.5908 12.8026 30 11.059 30C9.31533 30 7.90609 28.5908 7.90609 26.8472V18.965Z" fill="#E01E5A"/>
<path d="M11.0589 6.30573C9.31529 6.30573 7.90605 4.8965 7.90605 3.15287C7.90605 1.40924 9.31529 0 11.0589 0C12.8025 0 14.2118 1.40924 14.2118 3.15287V6.30573H11.0589ZM11.0589 7.90605C12.8025 7.90605 14.2118 9.31529 14.2118 11.0589C14.2118 12.8025 12.8025 14.2118 11.0589 14.2118H3.15287C1.40924 14.2118 0 12.8025 0 11.0589C0 9.31529 1.40924 7.90605 3.15287 7.90605H11.0589Z" fill="#36C5F0"/>
<path d="M23.6943 11.0589C23.6943 9.31529 25.1035 7.90605 26.8472 7.90605C28.5908 7.90605 30 9.31529 30 11.0589C30 12.8025 28.5908 14.2118 26.8472 14.2118H23.6943V11.0589ZM22.1179 11.0589C22.1179 12.8025 20.7086 14.2118 18.965 14.2118C17.2214 14.2118 15.8121 12.8025 15.8121 11.0589V3.15287C15.8121 1.40924 17.2214 0 18.965 0C20.7086 0 22.1179 1.40924 22.1179 3.15287V11.0589Z" fill="#2EB67D"/>
<path d="M18.965 23.6943C20.7086 23.6943 22.1179 25.1035 22.1179 26.8472C22.1179 28.5908 20.7086 30 18.965 30C17.2214 30 15.8121 28.5908 15.8121 26.8472V23.6943H18.965ZM18.965 22.1179C17.2214 22.1179 15.8121 20.7086 15.8121 18.965C15.8121 17.2214 17.2214 15.8121 18.965 15.8121H26.8711C28.6147 15.8121 30.0239 17.2214 30.0239 18.965C30.0239 20.7086 28.6147 22.1179 26.8711 22.1179H18.965Z" fill="#ECB22E"/>
</svg>
