<svg width="138" height="40" viewBox="0 0 138 40" fill="none" xmlns="http://www.w3.org/2000/svg">
<path d="M65.0108 9.99988H71.2073V29.9986H66.6153V16.5496L60.7412 29.9981L54.5588 16.5327V29.9981H50.2745V9.99938H56.3989L60.8146 20.3507L65.0108 9.99988ZM73.4907 9.99988V29.9986H85.03V26.6083H77.964V21.52H84.7376V18.0978H77.964V13.5096H85.03V9.99988H73.4907ZM102.24 20.0028C102.24 27.4469 110.009 33.4041 118.196 29.4195V25.135C111.896 29.5478 106.413 25.1249 106.503 20.1737C106.565 16.8831 108.776 13.7535 113.053 13.5096C115.157 13.3902 116.582 13.913 118.196 15.458V11.0023C112.28 7.49739 102.24 11.3553 102.24 20.0028ZM120.084 29.9984H124.337V10.1922H120.084V29.9984ZM129.674 19.2742L136.101 10.2359H131.134L124.766 19.2573L132.159 29.9984H137.037L129.674 19.2742Z" fill="#231F20"/>
<path d="M87.0182 9.99933V29.9981H91.5072V19.254L98.9276 29.9981H103.713L97.8383 21.601C100.561 20.5715 101.444 18.2886 101.444 16.0068C101.444 13.7272 99.5301 9.99958 94.8937 9.99958L87.0182 9.99933ZM91.5072 13.3276H93.4667C96.7795 13.3276 96.9562 15.493 96.9562 16.3019C96.9562 17.8469 95.6453 19.1626 93.9534 19.1626H91.5072V13.3276Z" fill="#231F20"/>
<path d="M9.99937 10.0001C9.99937 4.47687 14.4772 0 19.9995 0C25.5238 0 29.9999 4.47687 29.9999 10.0001H9.99937ZM9.99937 29.9999C9.99937 24.4774 14.4772 19.9995 19.9995 19.9995C14.4772 19.9995 9.99937 15.5236 9.99937 10.0001C4.47687 10.0001 0 14.4772 0 19.9995C0 25.5238 4.47687 29.9999 9.99937 29.9999ZM9.99937 29.9999C9.99937 35.5241 14.4772 40 19.9995 40C25.5238 40 29.9999 35.5241 29.9999 29.9999H9.99937ZM19.9995 19.9995C25.5238 19.9995 29.9999 24.4774 29.9999 29.9999C35.5231 29.9999 40.001 25.524 40.001 19.9995C40.001 14.4772 35.5231 10.0001 29.9999 10.0001C29.9999 15.5236 25.524 19.9995 19.9995 19.9995Z" fill="#007A73"/>
</svg>
