<svg width="120" height="40" viewBox="0 0 120 40" fill="none" xmlns="http://www.w3.org/2000/svg">
<path d="M51.3529 21.0501C51.3529 26.8049 46.907 31.0456 41.4508 31.0456C35.9947 31.0456 31.5487 26.8049 31.5487 21.0501C31.5487 15.2547 35.9947 11.0546 41.4508 11.0546C46.907 11.0546 51.3529 15.2547 51.3529 21.0501ZM47.0182 21.0501C47.0182 17.4538 44.4415 14.9933 41.4508 14.9933C38.4602 14.9933 35.8834 17.4538 35.8834 21.0501C35.8834 24.6102 38.4602 27.1068 41.4508 27.1068C44.4415 27.1068 47.0182 24.6057 47.0182 21.0501Z" fill="#EA4335"/>
<path d="M72.7147 21.0501C72.7147 26.8049 68.2688 31.0456 62.8126 31.0456C57.3565 31.0456 52.9105 26.8049 52.9105 21.0501C52.9105 15.2592 57.3565 11.0546 62.8126 11.0546C68.2688 11.0546 72.7147 15.2547 72.7147 21.0501ZM68.3801 21.0501C68.3801 17.4538 65.8033 14.9933 62.8126 14.9933C59.822 14.9933 57.2452 17.4538 57.2452 21.0501C57.2452 24.6102 59.822 27.1068 62.8126 27.1068C65.8033 27.1068 68.3801 24.6057 68.3801 21.0501Z" fill="#FBBC05"/>
<path d="M93.1865 11.6584V29.6035C93.1865 36.9852 88.8874 40 83.8051 40C79.0209 40 76.1415 36.7598 75.0556 34.11L78.8296 32.5192C79.5016 34.146 81.1482 36.0658 83.8006 36.0658C87.0538 36.0658 89.0699 34.0334 89.0699 30.2073V28.7698H88.9186C87.9484 29.982 86.0792 31.041 83.7205 31.041C78.785 31.041 74.2635 26.6877 74.2635 21.0861C74.2635 15.4439 78.785 11.0546 83.7205 11.0546C86.0748 11.0546 87.9439 12.1136 88.9186 13.2898H89.0699V11.6629H93.1865V11.6584ZM89.3769 21.0861C89.3769 17.5665 87.0583 14.9933 84.1077 14.9933C81.117 14.9933 78.6115 17.5665 78.6115 21.0861C78.6115 24.5697 81.117 27.1068 84.1077 27.1068C87.0583 27.1068 89.3769 24.5697 89.3769 21.0861Z" fill="#4285F4"/>
<path d="M99.9733 1.14014V30.4326H95.7454V1.14014H99.9733Z" fill="#34A853"/>
<path d="M116.449 24.3398L119.813 26.6111C118.727 28.2379 116.11 31.041 111.589 31.041C105.981 31.041 101.793 26.6516 101.793 21.0455C101.793 15.1014 106.017 11.05 111.104 11.05C116.226 11.05 118.732 15.178 119.551 17.4087L120 18.5444L106.805 24.0784C107.815 26.0838 109.386 27.1068 111.589 27.1068C113.796 27.1068 115.327 26.0072 116.449 24.3398ZM106.093 20.7435L114.913 17.0347C114.428 15.7864 112.968 14.9166 111.251 14.9166C109.048 14.9166 105.981 16.8859 106.093 20.7435Z" fill="#EA4335"/>
<path d="M15.5452 18.4497V14.2091H29.6573C29.7953 14.9482 29.8665 15.8224 29.8665 16.7688C29.8665 19.9504 29.0076 23.8846 26.2394 26.6877C23.5469 29.5268 20.1068 31.041 15.5496 31.041C7.1028 31.041 0 24.0739 0 15.5205C0 6.9671 7.1028 0 15.5496 0C20.2225 0 23.5514 1.85669 26.0525 4.2767L23.0975 7.26904C21.304 5.56557 18.8741 4.24065 15.5452 4.24065C9.37695 4.24065 4.55274 9.27445 4.55274 15.5205C4.55274 21.7666 9.37695 26.8004 15.5452 26.8004C19.5461 26.8004 21.8247 25.1735 23.2844 23.6954C24.4682 22.4966 25.247 20.7841 25.5541 18.4452L15.5452 18.4497Z" fill="#4285F4"/>
</svg>
