<svg width="141" height="30" viewBox="0 0 141 30" fill="none" xmlns="http://www.w3.org/2000/svg">
<path d="M49.5814 17.2791L48.7442 19.6512H48.6744C48.5349 19.1163 48.2791 18.3023 47.8605 17.3256L43.3721 6.04653H38.9767V24.0233H41.8837V12.9303C41.8837 12.2326 41.8837 11.4419 41.8605 10.4651C41.8372 9.97676 41.7907 9.60467 41.7674 9.3256H41.8372C41.9767 10.0233 42.1395 10.5349 42.2558 10.8605L47.6512 23.9768H49.6977L55.0465 10.7442C55.1628 10.4419 55.2791 9.83723 55.3953 9.3256H55.4651C55.3953 10.6512 55.3488 11.8372 55.3256 12.5582V23.9535H58.4186V6.00002H54.186L49.5814 17.2791ZM61.3488 11.0698H64.3721V23.9535H61.3488V11.0698ZM62.8837 5.62793C62.3721 5.62793 61.9535 5.81397 61.6047 6.13955C61.2558 6.46514 61.0698 6.88374 61.0698 7.39537C61.0698 7.88374 61.2558 8.30234 61.6047 8.62793C61.9535 8.95351 62.3721 9.1163 62.8837 9.1163C63.3953 9.1163 63.8372 8.93025 64.1628 8.62793C64.5116 8.30234 64.6977 7.88374 64.6977 7.39537C64.6977 6.907 64.5116 6.48839 64.1628 6.13955C63.8605 5.81397 63.4186 5.62793 62.8837 5.62793ZM75.093 10.9535C74.5349 10.8372 73.9535 10.7675 73.3954 10.7675C72.0233 10.7675 70.7674 11.0698 69.7209 11.6744C68.6744 12.2791 67.8372 13.1163 67.3023 14.1628C66.7442 15.2326 66.4651 16.4651 66.4651 17.8837C66.4651 19.1163 66.7442 20.2093 67.2791 21.2093C67.814 22.1861 68.5581 22.9768 69.5581 23.5116C70.5116 24.0465 71.6279 24.3256 72.8837 24.3256C74.3256 24.3256 75.5581 24.0233 76.5349 23.4651L76.5581 23.4419V20.6512L76.4419 20.7442C76 21.0698 75.4884 21.3489 74.9767 21.5116C74.4419 21.6977 73.9535 21.7907 73.5349 21.7907C72.3256 21.7907 71.3721 21.4419 70.6977 20.6744C70 19.9303 69.6512 18.907 69.6512 17.6279C69.6512 16.3023 70 15.2558 70.7209 14.4884C71.4419 13.7209 72.3953 13.3256 73.5581 13.3256C74.5349 13.3256 75.5349 13.6512 76.4419 14.3023L76.5581 14.3954V11.4419L76.5349 11.4186C76.1395 11.2558 75.6977 11.0698 75.093 10.9535ZM85.0698 10.8605C84.3256 10.8605 83.6279 11.093 83.0233 11.5814C82.5116 12 82.1628 12.6047 81.8605 13.3256H81.8372V11.0698H78.814V23.9535H81.8372V17.3721C81.8372 16.2558 82.0698 15.3256 82.5814 14.6512C83.093 13.9535 83.7442 13.6047 84.5349 13.6047C84.814 13.6047 85.093 13.6744 85.4419 13.7209C85.7674 13.814 86 13.907 86.1628 14.0233L86.2791 14.1163V11.093L86.2093 11.0698C86 10.9303 85.5814 10.8605 85.0698 10.8605ZM93.3023 10.7907C91.1861 10.7907 89.4884 11.4186 88.3023 12.6512C87.093 13.8837 86.5116 15.5814 86.5116 17.7209C86.5116 19.7209 87.1163 21.3489 88.2791 22.5349C89.4419 23.6977 91.0233 24.3023 93 24.3023C95.0698 24.3023 96.7209 23.6744 97.907 22.4186C99.1163 21.1628 99.6977 19.4884 99.6977 17.4186C99.6977 15.3721 99.1395 13.7442 98 12.5582C96.907 11.3721 95.3023 10.7907 93.3023 10.7907ZM95.7209 20.6977C95.1628 21.4186 94.2791 21.7675 93.1861 21.7675C92.093 21.7675 91.2093 21.4186 90.5814 20.6512C89.9535 19.9303 89.6512 18.8837 89.6512 17.5582C89.6512 16.1861 89.9767 15.1396 90.5814 14.3954C91.2093 13.6512 92.0698 13.2791 93.1628 13.2791C94.2326 13.2791 95.0698 13.6279 95.6744 14.3489C96.2791 15.0698 96.6047 16.1163 96.6047 17.4884C96.5581 18.8837 96.3023 19.9768 95.7209 20.6977ZM106.442 16.4186C105.488 16.0233 104.884 15.7209 104.605 15.4651C104.372 15.2326 104.256 14.907 104.256 14.4884C104.256 14.1396 104.395 13.7907 104.744 13.5582C105.093 13.3256 105.488 13.2093 106.07 13.2093C106.581 13.2093 107.116 13.3023 107.628 13.4419C108.14 13.5814 108.605 13.7907 108.977 14.0698L109.093 14.1628V11.3256L109.023 11.3023C108.674 11.1628 108.209 11.0233 107.651 10.907C107.093 10.814 106.581 10.7675 106.163 10.7675C104.721 10.7675 103.535 11.1163 102.605 11.8837C101.674 12.6047 101.233 13.5814 101.233 14.7209C101.233 15.3256 101.326 15.8605 101.535 16.3023C101.744 16.7442 102.047 17.1628 102.465 17.5116C102.884 17.8372 103.488 18.2093 104.326 18.5582C105.023 18.8605 105.558 19.093 105.884 19.2791C106.209 19.4651 106.419 19.6744 106.581 19.8372C106.698 20.0233 106.767 20.2558 106.767 20.5582C106.767 21.4186 106.116 21.8372 104.791 21.8372C104.279 21.8372 103.744 21.7442 103.116 21.5349C102.488 21.3256 101.907 21.0233 101.419 20.6744L101.302 20.5814V23.5349L101.372 23.5582C101.814 23.7675 102.349 23.907 103 24.0698C103.651 24.1861 104.233 24.2791 104.744 24.2791C106.302 24.2791 107.581 23.9303 108.488 23.1628C109.419 22.4186 109.907 21.4651 109.907 20.2326C109.907 19.3721 109.674 18.6047 109.163 18.0233C108.488 17.4651 107.651 16.8837 106.442 16.4186ZM117.884 10.7907C115.767 10.7907 114.07 11.4186 112.884 12.6512C111.698 13.8837 111.093 15.5814 111.093 17.7209C111.093 19.7209 111.698 21.3489 112.86 22.5349C114.023 23.6977 115.605 24.3023 117.581 24.3023C119.651 24.3023 121.302 23.6744 122.488 22.4186C123.698 21.1628 124.279 19.4884 124.279 17.4186C124.279 15.3721 123.721 13.7442 122.581 12.5582C121.488 11.3721 119.884 10.7907 117.884 10.7907ZM120.279 20.6977C119.721 21.4186 118.837 21.7675 117.744 21.7675C116.628 21.7675 115.767 21.4186 115.14 20.6512C114.512 19.9303 114.209 18.8837 114.209 17.5582C114.209 16.1861 114.535 15.1396 115.14 14.3954C115.767 13.6512 116.628 13.2791 117.721 13.2791C118.767 13.2791 119.628 13.6279 120.233 14.3489C120.837 15.0698 121.163 16.1163 121.163 17.4884C121.163 18.8837 120.86 19.9768 120.279 20.6977ZM140.442 13.5582V11.0698H137.395V7.25583L137.302 7.27909L134.419 8.13955L134.349 8.16281V11.0698H129.791V9.44188C129.791 8.69769 129.977 8.1163 130.302 7.74421C130.628 7.37211 131.116 7.18607 131.721 7.18607C132.14 7.18607 132.581 7.27909 133.07 7.48839L133.186 7.55816V4.93025L133.116 4.907C132.698 4.76746 132.14 4.67444 131.419 4.67444C130.512 4.67444 129.721 4.88374 129 5.23258C128.279 5.62793 127.744 6.16281 127.349 6.88374C126.953 7.58141 126.744 8.37211 126.744 9.27909V11.0698H124.628V13.5349H126.744V23.9535H129.791V13.5582H134.349V20.1861C134.349 22.907 135.628 24.2791 138.186 24.2791C138.605 24.2791 139.047 24.2093 139.465 24.1396C139.907 24.0465 140.233 23.9303 140.419 23.8372L140.442 23.814V21.3256L140.326 21.4186C140.14 21.5349 139.977 21.6279 139.698 21.6977C139.465 21.7675 139.256 21.7907 139.093 21.7907C138.488 21.7907 138.07 21.6512 137.767 21.3023C137.488 20.9768 137.349 20.4419 137.349 19.6512V13.5582H140.442Z" fill="#737373"/>
<path d="M0 0H14.2558V14.2558H0V0Z" fill="#F25022"/>
<path d="M15.7442 0H30V14.2558H15.7442V0Z" fill="#7FBA00"/>
<path d="M0 15.7442H14.2558V30H0V15.7442Z" fill="#00A4EF"/>
<path d="M15.7442 15.7442H30V30H15.7442V15.7442Z" fill="#FFB900"/>
</svg>
