<svg width="60" height="60" viewBox="0 0 60 60" fill="none" xmlns="http://www.w3.org/2000/svg">
<g filter="url(#filter0_d)">
<circle opacity="0.5" cx="30" cy="24" r="20" fill="white"/>
<path d="M22.5 22.6957C22.27 22.6957 22.0413 22.5966 21.8775 22.4035C21.5713 22.0448 21.6025 21.4944 21.9463 21.1762L25.6963 17.6976C25.875 17.532 26.1125 17.4537 26.35 17.485L32.8363 18.3054L36.51 14.673C36.845 14.3443 37.3725 14.3574 37.6875 14.7069C38.0038 15.0551 37.99 15.6056 37.6563 15.9355L33.6975 19.8484C33.5175 20.0258 33.27 20.1106 33.025 20.0806L26.5225 19.2576L23.0538 22.4753C22.895 22.6226 22.6975 22.6957 22.5 22.6957Z" fill="#FF595A"/>
<path d="M37.7087 18.3485C37.5462 18.3485 37.3862 18.282 37.2662 18.1581L34.35 15.1139C34.1712 14.9274 34.1175 14.6469 34.2137 14.403C34.31 14.1591 34.5387 14 34.7912 14H37.7075C38.0525 14 38.3325 14.2922 38.3325 14.6521V17.6951C38.3325 17.9585 38.18 18.1959 37.9462 18.2976C37.87 18.3316 37.7887 18.3485 37.7087 18.3485Z" fill="#FF595A"/>
<path d="M25.8337 28.9993V31.3901H20.8337V28.9993C20.8337 28.3993 21.3 27.9128 21.875 27.9128H24.7912C25.3662 27.9128 25.8337 28.3993 25.8337 28.9993Z" fill="#143F6B"/>
<path d="M32.5 23.7822V31.3901H27.5V23.7822C27.5 23.1822 27.9663 22.6957 28.5413 22.6957H31.4575C32.0338 22.6957 32.5 23.1822 32.5 23.7822Z" fill="#143F6B"/>
<path d="M39.1663 25.522V31.3913H34.1663V25.522C34.1663 24.9221 34.6325 24.4355 35.2075 24.4355H38.125C38.7 24.4342 39.1663 24.9221 39.1663 25.522Z" fill="#143F6B"/>
<path d="M39.375 34H20.625C20.28 34 20 33.7078 20 33.3478C20 32.9878 20.28 32.6957 20.625 32.6957H39.375C39.72 32.6957 40 32.9878 40 33.3478C40 33.7078 39.72 34 39.375 34Z" fill="#143F6B"/>
</g>
<defs>
<filter id="filter0_d" x="0" y="0" width="60" height="60" filterUnits="userSpaceOnUse" color-interpolation-filters="sRGB">
<feFlood flood-opacity="0" result="BackgroundImageFix"/>
<feColorMatrix in="SourceAlpha" type="matrix" values="0 0 0 0 0 0 0 0 0 0 0 0 0 0 0 0 0 0 127 0" result="hardAlpha"/>
<feOffset dy="6"/>
<feGaussianBlur stdDeviation="5"/>
<feComposite in2="hardAlpha" operator="out"/>
<feColorMatrix type="matrix" values="0 0 0 0 0.0784314 0 0 0 0 0.247059 0 0 0 0 0.419608 0 0 0 0.2 0"/>
<feBlend mode="normal" in2="BackgroundImageFix" result="effect1_dropShadow"/>
<feBlend mode="normal" in="SourceGraphic" in2="effect1_dropShadow" result="shape"/>
</filter>
</defs>
</svg>
