<svg width="60" height="60" viewBox="0 0 60 60" fill="none" xmlns="http://www.w3.org/2000/svg">
<g filter="url(#filter0_d)">
<circle opacity="0.5" cx="30" cy="24" r="20" fill="white"/>
<path d="M36.875 16.1484C36.875 14.9619 35.9131 14 34.7266 14H32.3828C32.0592 14 31.7969 14.2623 31.7969 14.5859V18.2969H36.2891C36.6127 18.2969 36.875 18.0345 36.875 17.7109V16.1484Z" fill="#FF595A"/>
<path d="M22.1484 14C20.9619 14 20 14.9619 20 16.1484V17.7109C20 18.0345 20.2623 18.2969 20.5859 18.2969H32.3828V14H22.1484Z" fill="#BEEBFA"/>
<path d="M28.4375 14H32.3828V18.2969H28.4375V14Z" fill="#7ED8F7"/>
<path d="M20 17.7109V31.8516C20 33.0362 20.9638 34 22.1484 34H34.7266C35.9112 34 36.875 33.0362 36.875 31.8516V17.7109H20Z" fill="#FFF5F5"/>
<path d="M28.4375 17.7109V34H34.7266C35.9112 34 36.875 33.0362 36.875 31.8516V17.7109H28.4375Z" fill="#EBE1DC"/>
<path d="M30.3906 19.5078H22.9688C22.6452 19.5078 22.3828 19.7702 22.3828 20.0938V25.3198L30.9766 25.3672V20.0938C30.9766 19.7702 30.7142 19.5078 30.3906 19.5078Z" fill="#BEEBFA"/>
<path d="M30.3906 19.5078H28.4375V25.3532L30.9766 25.3672V20.0938C30.9766 19.7702 30.7142 19.5078 30.3906 19.5078Z" fill="#7ED8F7"/>
<path d="M30.3906 26.1484C30.7142 26.1484 30.9766 25.8861 30.9766 25.5625V25.3672L28.5156 22.0859C28.2813 21.7734 27.8125 21.7734 27.5781 22.0859L26.4768 23.5544V25.2891L29.0708 26.1484H30.3906Z" fill="#143F6B"/>
<path d="M28.4375 22.0018V25.9387L29.0708 26.1485H30.3906C30.7142 26.1485 30.9766 25.8861 30.9766 25.5625V25.3672L28.5156 22.086C28.492 22.0544 28.4654 22.027 28.4375 22.0018Z" fill="#143F6B"/>
<path d="M24.8982 22.8044L22.3828 25.3198V25.5625C22.3828 25.8861 22.6452 26.1485 22.9687 26.1485H29.0708L25.7268 22.8044C25.498 22.5756 25.127 22.5756 24.8982 22.8044Z" fill="#40566C"/>
<path d="M28.4375 26.1485H29.0708L28.4375 25.5151V26.1485Z" fill="#143F6B"/>
<path d="M31.9922 28.8828H22.9688C22.6452 28.8828 22.3828 28.6205 22.3828 28.2969C22.3828 27.9733 22.6452 27.7109 22.9688 27.7109H31.9922C32.3158 27.7109 32.5781 27.9733 32.5781 28.2969C32.5781 28.6205 32.3158 28.8828 31.9922 28.8828Z" fill="#828282"/>
<path d="M31.9922 27.7109H28.4375V28.8828H31.9922C32.3158 28.8828 32.5781 28.6205 32.5781 28.2969C32.5781 27.9733 32.3158 27.7109 31.9922 27.7109Z" fill="#5A5A5A"/>
<path d="M31.2082 31.6172H22.9688C22.6452 31.6172 22.3828 31.3548 22.3828 31.0312C22.3828 30.7077 22.6452 30.4453 22.9688 30.4453H31.2082" fill="#828282"/>
<path d="M31.2082 30.4453H28.4375V31.6172H31.2082" fill="#5A5A5A"/>
<path d="M30.6518 30.852C30.4636 31.4498 31.2189 31.8859 31.6425 31.424L34.1204 28.7226C34.2822 28.4424 34.1862 28.084 33.906 27.9222L32.5528 27.141C32.2726 26.9792 31.9142 27.0752 31.7524 27.3554L30.6518 30.852Z" fill="#FFDECF"/>
<path d="M36.6673 18.8424L35.4954 20.8721C35.3336 21.1524 35.4296 21.5107 35.7099 21.6725L37.063 22.4538C37.3433 22.6156 37.7016 22.5196 37.8634 22.2393L39.0353 20.2096C39.1971 19.9293 39.1011 19.571 38.8208 19.4092L37.4677 18.6279C37.1874 18.4661 36.8291 18.5621 36.6673 18.8424Z" fill="#FFF5F5"/>
<path d="M31.6425 31.4239L34.1204 28.7225C34.2822 28.4423 34.1862 28.0839 33.9059 27.9221L33.2294 27.5315L30.9178 31.5353C31.136 31.6613 31.4307 31.6549 31.6425 31.4239Z" fill="#FFBEAA"/>
<path d="M37.8635 22.2393L39.0354 20.2096C39.1972 19.9293 39.1011 19.571 38.8209 19.4092L38.1443 19.0186L36.3865 22.0632L37.0631 22.4538C37.3433 22.6156 37.7017 22.5196 37.8635 22.2393Z" fill="#EBE1DC"/>
<path d="M39.3162 16.9888C38.6623 16.6113 37.8261 16.8353 37.4485 17.4892L36.6673 18.8424L39.0353 20.2096L39.8166 18.8564C40.1941 18.2025 39.9701 17.3664 39.3162 16.9888Z" fill="#FF7E7F"/>
<path d="M39.8166 18.8564C40.1941 18.2025 39.9701 17.3663 39.3162 16.9888L37.8513 19.526L39.0353 20.2096L39.8166 18.8564Z" fill="#FF595A"/>
<path d="M31.7521 27.3556L35.4952 20.8726L37.8631 22.2398L34.12 28.7228L31.7521 27.3556Z" fill="#BEEBFA"/>
<path d="M32.9361 28.0392L36.6792 21.5562L37.8632 22.2398L34.1201 28.7228L32.9361 28.0392Z" fill="#7ED8F7"/>
</g>
<defs>
<filter id="filter0_d" x="0" y="0" width="60" height="60" filterUnits="userSpaceOnUse" color-interpolation-filters="sRGB">
<feFlood flood-opacity="0" result="BackgroundImageFix"/>
<feColorMatrix in="SourceAlpha" type="matrix" values="0 0 0 0 0 0 0 0 0 0 0 0 0 0 0 0 0 0 127 0" result="hardAlpha"/>
<feOffset dy="6"/>
<feGaussianBlur stdDeviation="5"/>
<feComposite in2="hardAlpha" operator="out"/>
<feColorMatrix type="matrix" values="0 0 0 0 0.0784314 0 0 0 0 0.247059 0 0 0 0 0.419608 0 0 0 0.2 0"/>
<feBlend mode="normal" in2="BackgroundImageFix" result="effect1_dropShadow"/>
<feBlend mode="normal" in="SourceGraphic" in2="effect1_dropShadow" result="shape"/>
</filter>
</defs>
</svg>
