<svg width="64" height="64" viewBox="0 0 64 64" fill="none" xmlns="http://www.w3.org/2000/svg">
<g filter="url(#filter0_d)">
<circle opacity="0.5" cx="32" cy="26" r="20" fill="white"/>
<path d="M38.5517 30.4828L41.5714 33.5024C41.8459 33.7769 42 34.149 42 34.5369C42.0004 35.3448 41.3455 35.9997 40.5376 36C40.5372 36 40.5372 36 40.5369 36C40.149 36 39.7769 35.8459 39.5024 35.5714L36.4828 32.5518L38.5517 30.4828Z" fill="#40566C"/>
<path d="M36.4831 32.5508L38.552 30.4819L36.8282 28.7581L34.7593 30.8269L36.4831 32.5508Z" fill="#FF595A"/>
<path d="M38.0344 31.1723C38.4676 31.173 38.9 31.2023 39.3289 31.2599L38.5517 30.4827L37.8575 31.1768C37.9166 31.1758 37.9752 31.1723 38.0344 31.1723Z" fill="#143F6B"/>
<path d="M38.5517 30.4827L36.8275 28.7585L34.7585 30.8275L35.4482 31.5172C36.2337 31.3044 37.0427 31.1896 37.8565 31.1758L38.5517 30.4827Z" fill="#FF595A"/>
<path d="M30.2758 31.1724C34.0846 31.1724 37.1723 28.0848 37.1723 24.2759C37.1723 20.4671 34.0846 17.3794 30.2758 17.3794C26.467 17.3794 23.3793 20.4671 23.3793 24.2759C23.3793 28.0848 26.467 31.1724 30.2758 31.1724Z" fill="white"/>
<path d="M28.9975 26.2434L29.4851 25.7557L27.4163 23.6869L26.9286 24.1745L28.9975 26.2434Z" fill="#FF595A"/>
<path d="M30.8646 26.2439L33.6232 23.4852L33.1356 22.9976L30.3769 25.7562L30.8646 26.2439Z" fill="#FF595A"/>
<path d="M42.3448 17.3794H39.931V18.0691H42.3448V17.3794Z" fill="#FF595A"/>
<path d="M25.4482 22.8965H23.3793V23.5861H25.4482V22.8965Z" fill="#FF595A"/>
<path d="M37.0711 20.0375L38.4504 18.6582L37.9628 18.1705L36.5835 19.5499L37.0711 20.0375Z" fill="#FF595A"/>
<path d="M26.4828 24.6207C25.721 24.6207 25.1035 24.0031 25.1035 23.2414C25.1035 22.4796 25.721 21.8621 26.4828 21.8621C27.2445 21.8621 27.8621 22.4796 27.8621 23.2414C27.8621 24.0031 27.2445 24.6207 26.4828 24.6207ZM26.4828 22.5517C26.1017 22.5517 25.7931 22.8603 25.7931 23.2414C25.7931 23.6224 26.1017 23.931 26.4828 23.931C26.8638 23.931 27.1724 23.6224 27.1724 23.2414C27.1724 22.8603 26.8638 22.5517 26.4828 22.5517Z" fill="#40566C"/>
<path d="M29.931 28.0689C29.1693 28.0689 28.5517 27.4514 28.5517 26.6896C28.5517 25.9279 29.1693 25.3103 29.931 25.3103C30.6927 25.3103 31.3103 25.9279 31.3103 26.6896C31.3103 27.4514 30.6927 28.0689 29.931 28.0689ZM29.931 26C29.55 26 29.2414 26.3086 29.2414 26.6896C29.2414 27.0706 29.55 27.3793 29.931 27.3793C30.312 27.3793 30.6207 27.0706 30.6207 26.6896C30.6207 26.3086 30.312 26 29.931 26Z" fill="#40566C"/>
<path d="M38.8965 19.1035C38.1348 19.1035 37.5172 18.4859 37.5172 17.7242C37.5172 16.9624 38.1348 16.3448 38.8965 16.3448C39.6583 16.3448 40.2758 16.9624 40.2758 17.7242C40.2758 18.4859 39.6583 19.1035 38.8965 19.1035ZM38.8965 17.0345C38.5155 17.0345 38.2069 17.3431 38.2069 17.7242C38.2069 18.1052 38.5155 18.4138 38.8965 18.4138C39.2776 18.4138 39.5862 18.1052 39.5862 17.7242C39.5862 17.3431 39.2776 17.0345 38.8965 17.0345Z" fill="#40566C"/>
<path d="M32.922 17.9072C35.8675 20.3221 36.2976 24.6676 33.8824 27.6131C31.9545 29.9644 28.7138 30.7758 25.9055 29.61C28.851 32.0248 33.1962 31.5948 35.6114 28.6496C38.0266 25.7045 37.5962 21.359 34.651 18.9438C34.1286 18.5155 33.5458 18.1662 32.922 17.9072Z" fill="white"/>
<path d="M35.0021 22.1073L36.3815 20.728L35.8938 20.2404L34.5145 21.6197L35.0021 22.1073Z" fill="#FF595A"/>
<path d="M35.8755 20.2576L35.0886 21.0445C35.1724 21.2958 35.2414 21.5517 35.2955 21.811L36.2583 20.8482C36.1407 20.6448 36.0131 20.4479 35.8755 20.2576Z" fill="#FF595A"/>
<path d="M30.2758 16C25.7052 16 22 19.7052 22 24.2758C22 28.8465 25.7052 32.5517 30.2758 32.5517C34.8465 32.5517 38.5517 28.8465 38.5517 24.2758C38.5517 19.7052 34.8465 16 30.2758 16ZM30.2758 31.1724C26.4669 31.1724 23.3793 28.0848 23.3793 24.2758C23.3793 20.4669 26.4669 17.3793 30.2758 17.3793C34.0848 17.3793 37.1724 20.4669 37.1724 24.2758C37.1724 28.0848 34.0848 31.1724 30.2758 31.1724Z" fill="#40566C"/>
<path d="M34.0689 23.931C33.3072 23.931 32.6896 23.3134 32.6896 22.5517C32.6896 21.7899 33.3072 21.1724 34.0689 21.1724C34.8307 21.1724 35.4483 21.7899 35.4483 22.5517C35.4483 23.3134 34.8306 23.931 34.0689 23.931ZM34.0689 21.862C33.6879 21.862 33.3793 22.1706 33.3793 22.5517C33.3793 22.9327 33.6879 23.2413 34.0689 23.2413C34.45 23.2413 34.7586 22.9327 34.7586 22.5517C34.7586 22.1706 34.45 21.862 34.0689 21.862Z" fill="#40566C"/>
</g>
<defs>
<filter id="filter0_d" x="0" y="0" width="64" height="64" filterUnits="userSpaceOnUse" color-interpolation-filters="sRGB">
<feFlood flood-opacity="0" result="BackgroundImageFix"/>
<feColorMatrix in="SourceAlpha" type="matrix" values="0 0 0 0 0 0 0 0 0 0 0 0 0 0 0 0 0 0 127 0" result="hardAlpha"/>
<feOffset dy="6"/>
<feGaussianBlur stdDeviation="6"/>
<feComposite in2="hardAlpha" operator="out"/>
<feColorMatrix type="matrix" values="0 0 0 0 0.0784314 0 0 0 0 0.247059 0 0 0 0 0.419608 0 0 0 0.2 0"/>
<feBlend mode="normal" in2="BackgroundImageFix" result="effect1_dropShadow"/>
<feBlend mode="normal" in="SourceGraphic" in2="effect1_dropShadow" result="shape"/>
</filter>
</defs>
</svg>
