<svg width="81" height="61" viewBox="0 0 81 61" fill="none" xmlns="http://www.w3.org/2000/svg">
<path d="M18.2735 24.7196C17.3797 24.7196 16.522 24.8559 15.6682 24.9801C15.9448 24.0503 16.2294 23.1044 16.6863 22.2547C17.1432 21.0202 17.8566 19.9501 18.566 18.8719C19.1592 17.7056 20.2053 16.916 20.9749 15.918C21.7805 14.9481 22.8787 14.3028 23.7484 13.4972C24.6021 12.6555 25.7204 12.2346 26.6101 11.6414C27.54 11.1084 28.3496 10.5192 29.2153 10.2386L31.3757 9.34886L33.2755 8.55928L31.3316 0.791748L28.9388 1.3689C28.1733 1.56129 27.2394 1.78573 26.1773 2.05427C25.0911 2.25467 23.9328 2.80377 22.6422 3.30477C21.3676 3.87391 19.8927 4.25868 18.522 5.17251C17.1432 6.04626 15.552 6.77571 14.1492 7.94606C12.7905 9.15247 11.1512 10.1986 9.94079 11.7336C8.61815 13.1685 7.31153 14.6755 6.29751 16.3909C5.12316 18.0262 4.32556 19.8218 3.48388 21.5974C2.72235 23.3729 2.10913 25.1885 1.60813 26.9521C0.658226 30.4871 0.233376 33.8459 0.0690471 36.7196C-0.0672254 39.5974 0.0129349 41.9901 0.181272 43.7216C0.241392 44.5392 0.353617 45.3328 0.433777 45.8819L0.533977 46.5553L0.638185 46.5312C1.35106 49.8612 2.99211 52.9213 5.37151 55.3576C7.75091 57.7939 10.7714 59.5067 14.0836 60.2981C17.3959 61.0894 20.8644 60.9268 24.0881 59.8292C27.3118 58.7315 30.1588 56.7436 32.2999 54.0955C34.441 51.4473 35.7887 48.2471 36.187 44.8651C36.5852 41.483 36.0179 38.0573 34.5505 34.9842C33.0832 31.9111 30.7758 29.3162 27.8953 27.4998C25.0148 25.6833 21.6789 24.7194 18.2735 24.7196ZM62.3616 24.7196C61.4679 24.7196 60.6101 24.8559 59.7564 24.9801C60.033 24.0503 60.3176 23.1044 60.7745 22.2547C61.2314 21.0202 61.9448 19.9501 62.6542 18.8719C63.2474 17.7056 64.2935 16.916 65.063 15.918C65.8687 14.9481 66.9669 14.3028 67.8366 13.4972C68.6903 12.6555 69.8085 12.2346 70.6983 11.6414C71.6282 11.1084 72.4378 10.5192 73.3035 10.2386L75.4638 9.34886L77.3636 8.55928L75.4198 0.791748L73.027 1.3689C72.2614 1.56129 71.3276 1.78573 70.2654 2.05427C69.1793 2.25467 68.021 2.80377 66.7304 3.30477C65.4598 3.87792 63.9809 4.25868 62.6101 5.17652C61.2314 6.05026 59.6402 6.77972 58.2374 7.95006C56.8787 9.15648 55.2394 10.2026 54.029 11.7336C52.7063 13.1685 51.3997 14.6755 50.3857 16.3909C49.2113 18.0262 48.4137 19.8218 47.5721 21.5974C46.8105 23.3729 46.1973 25.1885 45.6963 26.9521C44.7464 30.4871 44.3216 33.8459 44.1572 36.7196C44.021 39.5974 44.1011 41.9901 44.2695 43.7216C44.3296 44.5392 44.4418 45.3328 44.522 45.8819L44.6222 46.5553L44.7264 46.5312C45.4392 49.8612 47.0803 52.9213 49.4597 55.3576C51.8391 57.7939 54.8596 59.5067 58.1718 60.2981C61.484 61.0894 64.9526 60.9268 68.1763 59.8292C71.4 58.7315 74.247 56.7436 76.3881 54.0955C78.5292 51.4473 79.8769 48.2471 80.2751 44.8651C80.6734 41.483 80.1061 38.0573 78.6387 34.9842C77.1714 31.9111 74.864 29.3162 71.9835 27.4998C69.103 25.6833 65.7671 24.7194 62.3616 24.7196Z" fill="#DD6F77"/>
</svg>
