<svg width="200" height="54" viewBox="0 0 200 54" fill="none" xmlns="http://www.w3.org/2000/svg">
<path d="M35.7924 18.7658C28.3744 12.3561 27.5704 8.30038 33.9796 0.00152894C24.9005 -0.163399 15.4194 13.0458 28.4579 24.5832C34.5713 29.9959 37.1425 31.9525 35.5649 34.8912C35.5345 34.9512 35.4966 34.9962 35.4663 35.0411C35.4056 35.1011 35.3449 35.1611 35.2691 35.2211C32.5764 37.2077 30.2251 34.9962 23.8842 29.8384C10.3679 18.8483 -1.40383 30.1083 0.135901 38.9544L0.143486 38.9469C0.446882 42.5004 2.30518 46.3687 6.49203 50.0795C7.81939 51.2565 8.97229 52.2686 9.95832 53.1607L16.542 46.6535C15.6697 45.8739 14.7671 45.0792 13.819 44.2621C11.2705 42.0656 9.52599 40.1389 8.56271 38.2272C7.79663 36.3306 8.22139 32.6497 12.522 33.7142C14.5244 34.3889 16.6634 35.7983 19.174 37.8899C26.7057 44.1646 32.6371 48.7451 40.3509 45.4991C42.1486 44.7419 43.3773 43.7373 44.2117 42.5903C45.2659 41.5933 46.123 40.2214 46.6161 38.3022C48.6943 30.2657 43.2104 25.168 35.7924 18.7658Z" fill="#FF595A"/>
<path d="M79.3189 13.7783V39.5665H74.2739V22.8349L66.9832 34.8079H66.3679L59.1387 22.8963V39.5665H54.0322V13.7783H59.2926L66.7063 25.9663L74.0893 13.7783H79.3189Z" fill="#143F6B"/>
<path d="M97.9302 21.1464H102.698V39.5665H97.9302V37.3868C96.4844 39.1674 94.4848 40.0884 91.9008 40.0884C89.4398 40.0884 87.3171 39.1367 85.5637 37.264C83.8102 35.3913 82.9489 33.0888 82.9489 30.3565C82.9489 27.6241 83.841 25.3216 85.5944 23.4489C87.3479 21.5762 89.4705 20.6245 91.9315 20.6245C94.5156 20.6245 96.5151 21.5148 97.961 23.3261V21.1464H97.9302ZM89.1321 34.1019C90.0858 35.0843 91.3163 35.5448 92.7929 35.5448C94.2695 35.5448 95.5 35.0536 96.4536 34.1019C97.438 33.1195 97.8994 31.8915 97.8994 30.3565C97.8994 28.8215 97.4072 27.5934 96.4536 26.611C95.4692 25.6286 94.2695 25.1681 92.7929 25.1681C91.3163 25.1681 90.0858 25.6593 89.1321 26.611C88.1785 27.5934 87.6863 28.8215 87.6863 30.3565C87.6863 31.8915 88.1785 33.1195 89.1321 34.1019Z" fill="#143F6B"/>
<path d="M111.773 24.3084C112.204 23.1417 112.942 22.2514 113.957 21.6681C114.973 21.0848 116.111 20.7778 117.372 20.7778V26.089C115.926 25.9048 114.634 26.2118 113.465 26.9793C112.327 27.7468 111.743 29.0055 111.743 30.7861V39.597H106.974V21.1769H111.743V24.3084H111.773Z" fill="#143F6B"/>
<path d="M137.152 39.5665H131.615L124.909 31.1853V39.5665H120.141V13.7783H124.909V29.2819L131.246 21.1464H136.937L129.523 30.2336L137.152 39.5665Z" fill="#143F6B"/>
<path d="M153.918 37.264C152.041 39.1367 149.703 40.0884 146.996 40.0884C144.258 40.0884 141.951 39.1367 140.075 37.264C138.198 35.3913 137.245 33.0888 137.245 30.3565C137.245 27.6241 138.198 25.3216 140.075 23.4489C141.951 21.5762 144.258 20.6245 146.996 20.6245C149.734 20.6245 152.041 21.5762 153.949 23.4489C155.856 25.3216 156.779 27.6241 156.779 30.3565C156.779 33.0888 155.825 35.3913 153.918 37.264ZM143.428 34.0098C144.381 34.9615 145.55 35.4527 146.996 35.4527C148.411 35.4527 149.611 34.9615 150.565 34.0098C151.518 33.0581 152.011 31.8301 152.011 30.3565C152.011 28.8829 151.518 27.6549 150.565 26.7031C149.611 25.7514 148.411 25.2602 146.996 25.2602C145.581 25.2602 144.381 25.7514 143.428 26.7031C142.474 27.6549 142.013 28.8829 142.013 30.3565C142.013 31.8301 142.474 33.0274 143.428 34.0098Z" fill="#FF595A"/>
<path d="M170.283 25.7207H166.1V33.3958C166.1 34.0405 166.254 34.501 166.592 34.808C166.9 35.115 167.392 35.2685 168.007 35.2992C168.622 35.3299 169.391 35.3299 170.283 35.2685V39.5665C167.023 39.9349 164.715 39.6279 163.362 38.6455C162.008 37.6631 161.362 35.9132 161.362 33.3651V25.69H158.163V21.1464H161.362V17.4317L166.131 15.9888V21.1464H170.314V25.7207H170.283Z" fill="#143F6B"/>
<path d="M176.005 18.936C175.206 18.936 174.529 18.6597 173.944 18.0764C173.36 17.4931 173.083 16.8177 173.083 16.0195C173.083 15.2213 173.36 14.5459 173.944 13.9626C174.529 13.3793 175.206 13.0723 176.005 13.0723C176.805 13.0723 177.513 13.3793 178.097 13.9626C178.682 14.5459 178.959 15.252 178.959 16.0195C178.959 16.787 178.682 17.4931 178.097 18.0764C177.513 18.629 176.805 18.936 176.005 18.936ZM173.637 39.5665V21.1464H178.405V39.5665H173.637Z" fill="#143F6B"/>
<path d="M193.017 20.6245C195.047 20.6245 196.708 21.2999 198.031 22.6507C199.354 24.0015 200 25.8742 200 28.2382V39.5358H195.232V28.8522C195.232 27.6241 194.893 26.6724 194.247 26.0277C193.571 25.383 192.709 25.0453 191.602 25.0453C190.371 25.0453 189.387 25.4137 188.649 26.1812C187.91 26.9487 187.541 28.0847 187.541 29.6197V39.5665H182.773V21.1464H187.541V23.2033C188.679 21.4841 190.494 20.6245 193.017 20.6245Z" fill="#143F6B"/>
</svg>
