<svg width="162" height="43" viewBox="0 0 162 43" fill="none" xmlns="http://www.w3.org/2000/svg">
<path d="M28.9514 15.1791C22.9512 9.99446 22.3008 6.71392 27.4851 0.00123671C20.1413 -0.132168 12.4723 10.5523 23.0187 19.8846C27.9636 24.2627 30.0434 25.8454 28.7673 28.2224C28.7428 28.2709 28.7121 28.3073 28.6876 28.3437C28.6385 28.3922 28.5894 28.4407 28.528 28.4892C26.3501 30.0961 24.4482 28.3073 19.3191 24.1354C8.38627 15.2458 -1.13551 24.3537 0.109926 31.509L0.116062 31.5029C0.361468 34.3772 1.86459 37.5062 5.2512 40.5078C6.32486 41.4598 7.2574 42.2784 8.05497 43L13.3803 37.7366C12.6748 37.1059 11.9447 36.4632 11.1778 35.8022C9.11636 34.0255 7.70527 32.4671 6.9261 30.9208C6.30645 29.3867 6.65002 26.4093 10.1287 27.2704C11.7483 27.8161 13.4785 28.9561 15.5092 30.6479C21.6014 35.7234 26.3991 39.4284 32.6386 36.8027C34.0926 36.1903 35.0865 35.3777 35.7614 34.45C36.6142 33.6435 37.3075 32.5338 37.7063 30.9814C39.3873 24.481 34.9516 20.3576 28.9514 15.1791Z" fill="#FF595A"/>
<path d="M64.1586 11.1449V32.0042H60.0778V18.4705L54.1806 28.1551H53.6829L47.8355 18.5202V32.0042H43.7049V11.1449H47.9599L53.9566 21.0034L59.9285 11.1449H64.1586Z" fill="#143F6B"/>
<path d="M79.2126 17.1047H83.0695V32.0041H79.2126V30.241C78.0431 31.6813 76.4258 32.4263 74.3356 32.4263C72.345 32.4263 70.6281 31.6565 69.2098 30.1417C67.7914 28.6269 67.0947 26.7645 67.0947 24.5544C67.0947 22.3443 67.8163 20.4819 69.2346 18.9671C70.653 17.4523 72.3699 16.6825 74.3605 16.6825C76.4507 16.6825 78.068 17.4027 79.2375 18.8678V17.1047H79.2126ZM72.0962 27.5839C72.8675 28.3786 73.8628 28.7511 75.0572 28.7511C76.2516 28.7511 77.2469 28.3537 78.0183 27.5839C78.8145 26.7893 79.1878 25.796 79.1878 24.5544C79.1878 23.3128 78.7896 22.3195 78.0183 21.5248C77.222 20.7302 76.2516 20.3577 75.0572 20.3577C73.8628 20.3577 72.8675 20.755 72.0962 21.5248C71.3248 22.3195 70.9267 23.3128 70.9267 24.5544C70.9267 25.796 71.3248 26.7893 72.0962 27.5839Z" fill="#143F6B"/>
<path d="M90.4099 19.6625C90.7582 18.7188 91.3554 17.9987 92.1766 17.5269C92.9977 17.055 93.9183 16.8067 94.9385 16.8067V21.1027C93.7691 20.9537 92.724 21.2021 91.7784 21.8229C90.8578 22.4437 90.385 23.4618 90.385 24.9021V32.029H86.5282V17.1295H90.385V19.6625H90.4099Z" fill="#143F6B"/>
<path d="M110.938 32.0042H106.459L101.035 25.2249V32.0042H97.178V11.1449H101.035V23.6853L106.161 17.1047H110.764L104.767 24.4551L110.938 32.0042Z" fill="#143F6B"/>
<path d="M124.499 30.1417C122.981 31.6565 121.09 32.4263 118.901 32.4263C116.686 32.4263 114.82 31.6565 113.302 30.1417C111.784 28.6269 111.013 26.7645 111.013 24.5544C111.013 22.3443 111.784 20.4819 113.302 18.9671C114.82 17.4523 116.686 16.6825 118.901 16.6825C121.115 16.6825 122.981 17.4523 124.524 18.9671C126.067 20.4819 126.813 22.3443 126.813 24.5544C126.813 26.7645 126.042 28.6269 124.499 30.1417ZM116.014 27.5094C116.786 28.2792 117.731 28.6766 118.901 28.6766C120.045 28.6766 121.016 28.2792 121.787 27.5094C122.558 26.7396 122.957 25.7463 122.957 24.5544C122.957 23.3624 122.558 22.3691 121.787 21.5993C121.016 20.8295 120.045 20.4322 118.901 20.4322C117.756 20.4322 116.786 20.8295 116.014 21.5993C115.243 22.3691 114.87 23.3624 114.87 24.5544C114.87 25.7463 115.243 26.7148 116.014 27.5094Z" fill="#FF595A"/>
<path d="M137.737 20.8047H134.353V27.0128C134.353 27.5343 134.477 27.9068 134.751 28.1551C135 28.4035 135.398 28.5276 135.896 28.5525C136.393 28.5773 137.015 28.5773 137.737 28.5276V32.0042C135.099 32.3021 133.233 32.0538 132.138 31.2592C131.043 30.4645 130.521 29.0491 130.521 26.988V20.7799H127.933V17.1047H130.521V14.1L134.378 12.9329V17.1047H137.762V20.8047H137.737Z" fill="#143F6B"/>
<path d="M142.365 15.3168C141.718 15.3168 141.171 15.0933 140.698 14.6214C140.225 14.1496 140.001 13.6033 140.001 12.9577C140.001 12.312 140.225 11.7657 140.698 11.2939C141.171 10.8221 141.718 10.5738 142.365 10.5738C143.012 10.5738 143.584 10.8221 144.057 11.2939C144.53 11.7657 144.754 12.3369 144.754 12.9577C144.754 13.5785 144.53 14.1496 144.057 14.6214C143.584 15.0684 143.012 15.3168 142.365 15.3168ZM140.449 32.0041V17.1047H144.306V32.0041H140.449Z" fill="#143F6B"/>
<path d="M156.125 16.6825C157.768 16.6825 159.111 17.2288 160.181 18.3215C161.251 19.4141 161.774 20.9289 161.774 22.841V31.9793H157.917V23.3376C157.917 22.3443 157.643 21.5745 157.121 21.053C156.573 20.5315 155.876 20.2584 154.981 20.2584C153.985 20.2584 153.189 20.5564 152.592 21.1772C151.995 21.798 151.696 22.7168 151.696 23.9584V32.0041H147.839V17.1047H151.696V18.7684C152.617 17.3778 154.085 16.6825 156.125 16.6825Z" fill="#143F6B"/>
</svg>
